<?xml version="1.0" standalone="no"?>
<!DOCTYPE svg PUBLIC "-//W3C//DTD SVG 20010904//EN" "http://www.w3.org/TR/2001/REC-SVG-20010904/DTD/svg10.dtd">
<svg version="1.0" xmlns="http://www.w3.org/2000/svg" width="794.000000pt" height="702.000000pt" viewBox="0 0 794.000000 702.000000" preserveAspectRatio="xMidYMid meet">
  <metadata>
Created by potrace 1.16, written by Peter Selinger 2001-2019
</metadata>
  <g transform="translate(0.000000,702.000000) scale(0.100000,-0.100000)" fill="#47392b" stroke="none">
    <path d="M1815 6559 c-38 -33 -76 -132 -58 -150 5 -5 66 -8 134 -7 l124 3 -3
35 c-5 46 -35 103 -68 129 -39 31 -86 27 -129 -10z" />
    <path d="M6616 6539 c-14 -11 -33 -33 -40 -47 -18 -36 -30 -109 -18 -116 5 -3
63 -2 130 1 l122 6 0 26 c-1 39 -34 105 -65 129 -36 29 -93 29 -129 1z" />
    <path d="M3040 6531 c-5 -11 -10 -62 -10 -114 l0 -95 -47 5 c-28 3 -53 12 -60
22 -27 36 -35 41 -64 41 -20 0 -39 -9 -57 -29 -24 -26 -34 -29 -90 -30 -62 -1
-122 -22 -122 -41 0 -6 -90 -10 -238 -10 l-238 0 -10 38 -9 37 -201 3 -200 2
-15 -47 -14 -48 -83 -1 c-45 -1 -90 -5 -99 -8 -10 -4 -56 -1 -104 5 -178 25
-386 -39 -502 -154 -63 -63 -118 -171 -141 -274 -32 -146 -16 -276 75 -613 41
-151 42 -159 43 -315 1 -171 -3 -191 -84 -490 -65 -240 -77 -405 -39 -556 20
-80 94 -259 164 -399 43 -86 92 -225 100 -286 3 -27 8 -61 11 -75 4 -18 0 -28
-11 -33 -9 -3 -80 3 -158 14 -78 11 -169 20 -203 20 -156 0 -247 -88 -247
-240 0 -76 20 -130 65 -177 110 -113 418 -78 565 65 43 42 70 93 92 174 13 47
15 49 120 105 248 133 365 183 523 223 95 25 127 25 135 3 14 -41 35 -53 90
-53 l53 0 0 -80 c0 -77 1 -80 30 -102 l30 -22 0 -700 0 -701 -30 -17 c-28 -16
-30 -21 -30 -78 l0 -60 -93 0 c-86 0 -95 -2 -116 -24 -21 -22 -23 -32 -20
-111 3 -72 7 -89 23 -101 17 -12 371 -14 2476 -14 l2457 0 19 21 c29 32 32
153 5 197 l-21 32 -85 0 -85 0 0 70 c0 57 -4 74 -20 90 -11 11 -24 20 -30 20
-7 0 -10 238 -10 695 0 599 2 695 14 695 30 0 46 42 46 117 l0 73 48 0 c27 0
57 7 70 16 21 14 22 23 22 133 0 85 -4 122 -14 137 -14 19 -40 19 -1068 24
l-1053 5 70 22 c337 106 587 355 666 662 21 82 32 234 20 278 -8 27 -8 26 -16
-17 -10 -62 -56 -160 -109 -233 -173 -243 -491 -388 -886 -403 -254 -11 -469
30 -668 126 -250 120 -391 279 -458 514 -14 49 -14 46 -10 -89 3 -119 8 -152
31 -220 98 -293 318 -505 635 -611 l85 -29 -1017 -3 -1017 -2 -20 -26 c-12
-15 -21 -37 -21 -49 0 -20 -8 -24 -62 -34 -175 -33 -354 -100 -566 -213 -62
-33 -114 -58 -116 -57 -1 2 -10 42 -20 89 -21 99 -48 169 -155 403 -91 199
-107 244 -121 347 -13 95 0 217 40 367 141 518 142 602 15 1063 -76 277 -56
470 61 600 75 82 202 132 334 132 104 -1 141 -11 157 -43 21 -41 42 -49 134
-49 l87 0 6 -30 6 -30 215 0 c137 0 215 4 215 10 0 6 85 10 235 10 228 0 237
-1 266 -22 23 -17 47 -24 104 -26 66 -4 74 -6 79 -27 14 -53 103 -54 127 -1 8
18 22 25 52 29 23 3 45 3 49 1 16 -10 8 -76 -12 -101 -13 -17 -20 -41 -20 -68
0 -36 5 -48 30 -68 23 -20 30 -34 30 -61 0 -25 -5 -36 -14 -36 -19 0 -48 -29
-43 -44 2 -6 -5 -15 -16 -21 -30 -15 -22 -30 18 -33 31 -3 35 -6 30 -23 -4
-11 0 -30 9 -44 9 -13 16 -41 16 -62 1 -128 75 -260 173 -306 20 -10 37 -21
37 -25 0 -4 -12 -43 -27 -87 -24 -71 -27 -96 -27 -220 -1 -160 14 -223 84
-362 131 -259 429 -460 770 -519 142 -24 390 -15 525 19 387 99 682 372 750
695 29 133 19 268 -31 439 -5 17 -1 24 12 29 83 26 148 79 183 150 27 53 50
149 51 206 0 20 5 40 10 43 6 3 10 19 10 36 0 26 3 29 30 29 34 0 43 29 11 37
-11 3 -18 10 -15 16 5 15 -5 29 -31 43 -28 16 -24 63 9 99 30 32 36 98 11 131
-8 10 -15 38 -15 62 l0 42 54 0 c48 0 54 -3 60 -23 14 -56 98 -59 123 -6 10
20 22 28 54 32 23 3 55 15 70 26 27 20 41 21 284 21 248 0 255 -1 255 -20 0
-11 7 -20 15 -20 17 0 20 -25 5 -35 -5 -3 -10 -17 -10 -31 0 -13 5 -24 10 -24
15 0 12 -55 -4 -94 -13 -32 -18 -35 -73 -41 -70 -8 -201 -38 -262 -59 -24 -9
-61 -16 -82 -16 l-39 0 0 -145 0 -145 -37 0 c-21 0 -43 -4 -49 -8 -22 -14 -34
-51 -34 -102 0 -41 5 -56 25 -75 13 -14 28 -25 33 -25 4 0 8 -32 8 -71 -1
-119 -66 -109 704 -109 650 0 658 0 684 21 24 19 26 27 26 90 0 39 4 69 10 69
6 0 19 9 30 20 16 16 20 33 20 88 0 81 -14 100 -79 109 l-41 6 0 138 0 139
-32 0 c-18 0 -69 11 -112 25 -43 13 -127 32 -185 42 -58 10 -109 22 -113 28
-21 29 -27 79 -12 113 11 27 11 38 3 49 -9 10 -9 24 2 56 18 53 18 233 0 305
l-13 52 -189 0 -189 0 -10 -25 -10 -25 -260 0 c-162 0 -260 4 -260 10 0 16
-57 40 -94 40 -26 0 -38 6 -47 23 -16 30 -28 37 -66 37 -23 0 -38 -8 -56 -31
-21 -27 -29 -30 -68 -27 l-44 3 -5 95 c-6 105 -11 120 -44 120 -40 0 -46 -18
-46 -128 l0 -105 -37 6 c-47 8 -113 55 -133 96 l-15 31 -1015 0 -1016 0 -18
-31 c-19 -33 -90 -89 -113 -89 -10 0 -13 22 -13 98 0 63 -4 102 -12 110 -18
18 -56 14 -68 -7z m2440 -618 c0 -14 -11 -38 -25 -55 -37 -44 -35 -110 5 -148
33 -31 43 -90 16 -90 -20 0 -48 -30 -42 -45 2 -7 -4 -15 -15 -18 -32 -8 -23
-37 11 -37 26 0 30 -4 30 -27 0 -16 6 -36 13 -45 10 -12 11 -35 6 -86 -13
-122 -78 -213 -171 -241 -22 -7 -41 -11 -42 -9 -1 2 -23 35 -48 73 -115 175
-313 320 -536 395 -151 50 -233 63 -402 64 -159 0 -208 -7 -361 -49 -231 -65
-467 -229 -580 -401 -23 -35 -46 -64 -53 -64 -23 0 -77 41 -106 81 -54 76 -80
220 -44 250 10 8 13 21 9 36 -5 21 -2 23 30 23 25 0 35 4 35 16 0 9 -9 18 -20
21 -11 3 -20 14 -20 24 0 11 -11 24 -25 31 -37 17 -34 67 5 106 42 43 42 102
0 142 -29 27 -39 63 -21 74 20 13 131 -89 131 -120 0 -12 165 -14 1020 -14
l1020 0 0 22 c0 31 79 103 126 115 47 12 54 9 54 -24z m-1004 -344 c141 -21
308 -84 435 -165 169 -106 316 -305 364 -489 22 -86 20 -244 -5 -340 -68 -265
-311 -501 -615 -598 -150 -48 -182 -52 -380 -52 -164 0 -202 3 -278 23 -209
53 -357 134 -498 272 -156 154 -227 302 -236 495 -11 216 67 403 234 569 240
238 601 343 979 285z m-1956 -3249 l0 -880 -70 0 -70 0 0 45 c0 60 -17 93 -51
100 l-29 7 0 709 c0 702 0 709 20 709 42 0 60 34 60 115 l0 75 70 0 70 0 0
-880z m3730 802 c0 -81 8 -99 52 -115 16 -5 17 -56 18 -680 0 -371 -3 -682 -6
-691 -3 -9 -12 -16 -20 -16 -27 0 -44 -43 -44 -112 l0 -68 -75 0 -75 0 0 880
0 880 75 0 75 0 0 -78z m-705 -36 c15 -10 20 -28 21 -68 3 -112 74 -188 180
-194 31 -2 62 -8 70 -15 12 -10 14 -95 14 -523 0 -290 -4 -517 -9 -525 -6 -9
-35 -17 -76 -22 -112 -11 -179 -83 -178 -190 1 -105 141 -94 -1224 -97 -659
-1 -1208 0 -1220 3 -40 9 -53 32 -47 79 5 32 1 55 -15 91 -36 81 -91 115 -189
115 -32 0 -63 5 -70 12 -9 9 -12 141 -12 535 0 517 0 522 21 533 11 6 33 9 48
5 41 -9 114 13 154 46 41 34 73 114 63 160 -4 22 0 35 14 49 20 20 38 20 1228
20 1018 0 1211 -2 1227 -14z m-4708 -139 l141 -22 -12 -30 c-19 -44 -76 -90
-143 -115 -161 -60 -293 -41 -309 46 -11 60 6 106 46 126 45 23 101 22 277 -5z" />
    <path d="M4407 5516 c-50 -18 -74 -41 -87 -82 -20 -60 9 -118 77 -153 80 -41
199 19 209 106 12 93 -100 165 -199 129z" />
    <path d="M3992 5483 c-46 -23 -72 -59 -72 -102 0 -47 23 -79 74 -102 72 -33
150 -23 202 26 28 26 34 40 34 72 0 74 -63 123 -157 123 -26 0 -63 -8 -81 -17z" />
    <path d="M4733 5359 c-76 -38 -94 -126 -35 -182 54 -51 119 -60 189 -26 97 47
97 165 0 210 -55 24 -102 24 -154 -2z" />
    <path d="M3660 5308 c-134 -68 -76 -228 83 -228 83 0 152 58 150 126 -3 101
-128 155 -233 102z" />
    <path d="M4140 5224 c-251 -54 -425 -267 -390 -480 30 -182 203 -339 412 -374
86 -15 231 -8 301 14 114 36 225 116 285 207 74 111 83 251 24 371 -102 208
-370 319 -632 262z m296 -34 c93 -24 167 -67 235 -135 71 -72 103 -142 107
-235 5 -96 -8 -143 -59 -220 -50 -75 -123 -130 -226 -172 -65 -26 -95 -32
-183 -36 -260 -11 -471 119 -525 325 -54 202 99 412 345 477 81 22 212 20 306
-4z" />
    <path d="M4128 5131 c-166 -55 -268 -170 -276 -313 -12 -209 173 -368 428
-368 145 0 254 44 341 137 124 132 117 308 -16 439 -88 87 -163 116 -310 121
-88 2 -121 -1 -167 -16z" />
    <path d="M4950 5092 c-52 -26 -83 -77 -77 -129 8 -77 65 -123 151 -123 79 0
138 57 138 134 0 105 -113 168 -212 118z" />
    <path d="M3473 5021 c-67 -31 -94 -110 -56 -167 71 -109 293 -67 293 56 0 41
-22 83 -56 105 -41 27 -130 30 -181 6z" />
    <path d="M4963 4750 c-63 -38 -81 -120 -40 -181 28 -42 65 -61 121 -61 143 0
201 168 83 241 -45 27 -120 28 -164 1z" />
    <path d="M3475 4700 c-49 -24 -75 -65 -75 -115 0 -30 8 -45 38 -75 67 -68 179
-65 241 5 55 63 35 147 -44 185 -53 25 -109 25 -160 0z" />
    <path d="M4778 4439 c-59 -31 -83 -95 -57 -152 6 -13 29 -36 52 -50 87 -57
207 -21 238 70 14 43 -11 98 -60 130 -44 29 -120 30 -173 2z" />
    <path d="M3715 4430 c-17 -5 -45 -25 -64 -43 -110 -114 37 -268 194 -203 68
29 95 118 55 183 -33 54 -119 83 -185 63z" />
    <path d="M4455 4276 c-79 -35 -111 -131 -63 -191 27 -34 91 -64 138 -65 44 0
118 36 143 71 38 53 19 124 -46 173 -34 25 -129 32 -172 12z" />
    <path d="M4047 4259 c-102 -54 -101 -186 2 -239 138 -70 290 69 208 191 -44
67 -135 87 -210 48z" />
    <path d="M3175 2973 c-25 -113 -92 -195 -188 -232 -32 -11 -68 -21 -80 -21
l-22 0 2 -437 1 -438 45 -6 c116 -17 208 -106 240 -231 l13 -53 1140 0 1139 0
6 46 c16 112 112 214 222 234 l37 7 -2 441 -3 441 -30 7 c-110 23 -200 114
-223 226 l-8 38 -1142 3 -1142 2 -5 -27z" />
    <path d="M1644 5908 c-4 -13 -7 -33 -5 -45 2 -17 -5 -26 -23 -33 -20 -7 -26
-16 -26 -40 0 -25 -11 -42 -57 -83 -31 -29 -69 -60 -85 -70 -16 -9 -26 -22
-23 -27 3 -5 -10 -26 -29 -47 l-34 -38 -96 -3 c-83 -3 -98 -7 -110 -24 -29
-42 6 -78 75 -78 35 0 51 -5 58 -17 8 -15 29 -19 131 -23 l122 -5 24 -77 c20
-63 28 -77 47 -80 21 -3 22 -7 29 -173 11 -294 56 -492 143 -630 87 -138 313
-268 593 -341 8 -2 12 -25 12 -68 0 -69 14 -96 50 -96 33 0 49 39 47 109 -2
59 -1 64 24 77 15 7 29 21 33 29 3 9 6 187 6 396 0 366 -1 380 -20 399 -11 11
-24 20 -30 20 -6 0 -10 30 -10 70 0 57 -4 74 -20 90 -23 23 -33 24 -61 10 -15
-9 -19 -22 -19 -64 0 -49 -3 -57 -35 -85 -31 -27 -43 -31 -94 -31 -48 0 -61 4
-80 24 -31 33 -51 107 -51 193 0 64 2 73 18 73 14 0 23 18 41 80 l24 80 123 0
c113 0 124 2 134 20 8 16 21 20 60 20 37 0 55 5 70 20 24 24 24 29 4 58 -14
20 -24 22 -102 22 -84 1 -89 2 -125 33 -33 28 -42 44 -46 78 -1 4 -11 10 -23
13 -13 3 -49 31 -80 62 -49 48 -58 62 -58 92 0 19 -3 32 -6 29 -4 -3 -15 -2
-26 4 -15 8 -18 17 -14 35 4 13 2 33 -4 44 -10 19 -22 20 -240 20 -228 0 -229
0 -236 -22z" />
    <path d="M1700 1070 c-27 -27 -28 -110 -2 -133 17 -16 212 -17 2598 -17 2049
0 2583 3 2596 12 9 7 19 34 22 59 6 37 3 50 -14 72 l-21 27 -2580 0 c-2566 0
-2579 0 -2599 -20z" />
    <path d="M1652 818 c-8 -8 -12 -51 -12 -129 0 -97 3 -118 16 -123 9 -3 1200
-6 2648 -6 2034 0 2635 3 2644 12 8 8 12 50 12 125 0 101 -2 113 -19 123 -30
16 -5273 14 -5289 -2z" />
  </g>
</svg>
