<?xml version="1.0" standalone="no"?>
<!DOCTYPE svg PUBLIC "-//W3C//DTD SVG 20010904//EN"
 "http://www.w3.org/TR/2001/REC-SVG-20010904/DTD/svg10.dtd">
<svg version="1.0" xmlns="http://www.w3.org/2000/svg"
 width="871.000000pt" height="871.000000pt" viewBox="0 0 871.000000 871.000000"
 preserveAspectRatio="xMidYMid meet">
<metadata>
Created by potrace 1.16, written by Peter Selinger 2001-2019
</metadata>
<g transform="translate(0.000000,871.000000) scale(0.100000,-0.100000)"
fill="#000000" stroke="none">
<path d="M4150 8704 c-1093 -54 -2109 -503 -2880 -1274 -714 -715 -1151 -1632
-1254 -2638 -22 -206 -22 -678 0 -884 103 -1006 540 -1923 1254 -2638 715
-714 1632 -1151 2638 -1254 206 -22 678 -22 884 0 1554 160 2899 1132 3537
2557 255 570 374 1136 374 1777 0 297 -15 479 -59 740 -244 1426 -1191 2645
-2517 3239 -425 190 -865 307 -1332 355 -152 16 -509 27 -645 20z m205 -2053
l1530 -598 0 -513 0 -514 -974 -810 -973 -809 183 -72 c101 -40 522 -204 934
-365 413 -161 769 -301 793 -311 l42 -18 0 -512 c0 -405 -3 -510 -12 -506 -13
5 -2411 935 -2828 1096 l-225 87 -2 515 -3 514 28 20 c76 54 1943 1600 1935
1602 -4 2 -447 173 -983 381 l-975 378 -3 517 c-1 284 -1 517 0 517 2 0 692
-270 1533 -599z"/>
</g>
</svg>
