<svg width="18" height="16" viewBox="0 0 18 16" fill="none" xmlns="http://www.w3.org/2000/svg">
<path d="M17.4789 6.14268L17.4741 6.16479L17.4714 6.18725C17.4057 6.71977 17.2564 7.23785 17.0294 7.72165C16.5029 8.83014 15.7977 9.84034 14.9434 10.7103L14.9433 10.7102L14.9365 10.7175C13.1866 12.5719 11.1709 14.09 9.00881 15.4485C7.28862 14.3911 5.66975 13.171 4.17371 11.8042L4.17372 11.8042L4.17036 11.8012C3.08878 10.8309 2.14777 9.70873 1.3757 8.46825L1.3755 8.46794C0.972257 7.82111 0.700439 7.0979 0.576564 6.34119C0.452688 5.58448 0.479354 4.81011 0.654936 4.06418L0.654983 4.0642L0.65648 4.05742C1.39357 0.718831 5.47274 -0.631126 7.99875 1.59168L8 1.59277C8.14266 1.71747 8.26151 1.84273 8.3992 1.98785C8.48 2.073 8.56729 2.165 8.66969 2.26773L9.12788 2.72743L9.45546 2.16712C9.45827 2.16232 9.46121 2.15761 9.46427 2.15302C10.6202 0.845506 12.0037 0.291273 13.6678 0.576216L13.6682 0.576276C15.5086 0.890062 16.7061 1.98601 17.3065 3.81747C17.3864 4.11483 17.451 4.41627 17.5 4.72054V6.0613C17.4919 6.08812 17.4849 6.11527 17.4789 6.14268Z" stroke="#F05A5A"/>
</svg>
