<svg width="60" height="60" viewBox="0 0 60 60" fill="none" xmlns="http://www.w3.org/2000/svg">
  <path d="M56.604 33.786C56.766 32.592 56.856 31.38 56.856 30.144C56.856 15.312 44.766 3.28802 29.856 3.28802C28.374 3.28802 26.922 3.40802 25.506 3.64202C22.974 1.98602 19.956 1.02002 16.71 1.02002C7.80601 1.02002 0.600006 8.23802 0.600006 17.136C0.600006 20.376 1.55401 23.382 3.19201 25.908C2.97001 27.288 2.85601 28.704 2.85601 30.144C2.85601 44.982 14.94 57.006 29.856 57.006C31.542 57.006 33.18 56.844 34.77 56.556C37.242 58.092 40.158 58.986 43.284 58.986C52.188 58.98 59.4 51.762 59.4 42.864C59.4 39.498 58.368 36.372 56.604 33.786ZM32.382 49.938C23.802 50.388 19.788 48.486 16.11 45.036C12 41.184 13.65 36.786 16.998 36.558C20.34 36.336 22.35 40.35 24.138 41.466C25.92 42.576 32.706 45.114 36.288 41.016C40.188 36.558 33.696 34.248 28.932 33.552C22.134 32.544 13.548 28.866 14.214 21.618C14.88 14.376 20.37 10.662 26.142 10.14C33.498 9.47402 38.292 11.256 42.078 14.49C46.458 18.228 44.088 22.404 41.298 22.74C38.52 23.076 35.394 16.596 29.262 16.5C22.944 16.398 18.672 23.076 26.472 24.972C34.278 26.868 42.636 27.648 45.648 34.782C48.66 41.91 40.968 49.488 32.382 49.938Z" fill="white" />
</svg>
