<svg viewBox="0 0 588 248" fill="none" xmlns="http://www.w3.org/2000/svg">
  <path d="M183.856 242V226.997H156.237V181.99H183.856V166.987H156.237V2.64139H117.026L0.756486 172.102V181.99H92.4765V226.997H60.7666V242H183.856ZM92.4765 166.987H28.0338L92.4765 67.0841V166.987ZM392.879 124.026C392.879 73.5625 361.851 0.936555 297.749 0.936555C233.306 0.936555 202.278 73.2215 202.278 124.026C202.278 173.807 232.965 247.796 297.749 247.796C361.851 247.796 392.879 174.489 392.879 124.026ZM267.062 124.026C267.062 40.4887 272.518 15.9391 297.749 15.9391C322.64 15.9391 328.095 41.8526 328.095 124.026C328.095 206.198 322.981 232.794 297.749 232.794C272.518 232.794 267.062 205.176 267.062 124.026ZM587.422 242V226.997H559.803V181.99H587.422V166.987H559.803V2.64139H520.592L404.323 172.102V181.99H496.043V226.997H464.333V242H587.422ZM496.043 166.987H431.6L496.043 67.0841V166.987Z" fill="url(#paint0_linear)" />
  <defs>
    <linearGradient id="paint0_linear" x1="605.939" y1="336.999" x2="-15.0714" y2="335.267" gradientUnits="userSpaceOnUse">
      <stop stop-color="#FFD700" />
      <stop offset="1" stop-color="#F05A5A" />
    </linearGradient>
  </defs>
</svg>
