<svg id="Capa_1" enable-background="new 0 0 511.976 511.976" height="512" viewBox="0 0 511.976 511.976" width="512" xmlns="http://www.w3.org/2000/svg">
  <g>
    <g>
      <path d="m497.148 397.263-110.82-110.821c-3.906-3.905-10.237-3.904-14.142 0l-21.712 21.712-29.484-29.484c51.966-59.273 49.696-149.812-6.832-206.34-58.903-58.902-154.746-58.902-213.65 0-11.974 11.974-21.513 25.474-28.619 39.88h-26.869c-24.824-.001-45.02 20.196-45.02 45.02 0 0 .055 254.62.03 271.335 0 .029.004.057.004.086-.012.472-.034.942-.034 1.416 0 29.642 24.115 53.757 53.769 53.757l216.704-.261c5.518-.007 9.988-4.481 9.988-10l.009-162.205c9.282-5.13 18.129-11.316 26.376-18.546l29.484 29.484-21.712 21.712c-3.847 3.848-3.848 10.294 0 14.143l110.821 110.821c19.516 19.515 52.193 19.516 71.709 0 19.771-19.77 19.771-51.938 0-71.709zm-382.499-310.791c50.449-50.449 134.917-50.449 185.366 0 51.106 51.105 51.106 134.261 0 185.366-54.391 54.391-146.647 49.159-194.839-10.559-41.402-51.422-38.249-127.086 9.473-174.807zm-60.892 377.352c-18.614 0-33.757-15.144-33.757-33.757 0-18.38 15.358-33.766 33.75-33.766l46.546.029c5.42 0 10.006-4.555 10.006-9.994.003-5.444-4.549-10.002-9.994-10.006l-46.54-.03c-12.209 0-24.233 4.219-33.731 11.891 0-60.554-.037-230.961-.037-230.961 0-13.796 11.224-25.021 25.02-25.021h18.67c-1.223 3.755-2.376 7.849-3.491 12.586-10.668 45.882.307 92.981 29.382 129.007 40.419 50.222 110.446 69.589 170.889 46.821v55.707h-72.167c-5.523 0-10 4.478-10 10s4.477 10 10 10h72.158v23.732h-202.289c-5.523 0-10 4.478-10 10s4.477 10 10 10h202.289v23.512zm429.25-8.995c-11.973 11.973-31.454 11.973-43.425 0l-103.75-103.75 43.425-43.424 103.75 103.75c11.972 11.972 11.972 31.453 0 43.424z" />
      <path d="m102.986 220.393c5.162 1.966 10.938-.625 12.904-5.785l4.022-10.561h27.966l3.974 10.531c1.914 5.072 7.817 7.742 12.887 5.825 5.167-1.949 7.775-7.719 5.825-12.886l-25.762-68.265c-.035-.093-.071-.185-.108-.275-1.792-4.354-5.991-7.167-10.699-7.167-.004 0-.009 0-.013 0-4.713.006-8.912 2.827-10.696 7.189-.031.075-.061.151-.089.227l-25.997 68.263c-1.966 5.161.625 10.939 5.786 12.904zm37.345-36.346h-12.801l6.43-16.883z" />
      <path d="m247.748 215.813c1.749 3.226 5.123 5.235 8.792 5.235h46.188c5.523 0 10-4.478 10-10s-4.477-10-10-10h-27.737l35.04-53.778c2.003-3.074 2.162-6.998.414-10.224-1.749-3.226-5.123-5.235-8.792-5.235h-43.693c-5.523 0-10 4.478-10 10s4.477 10 10 10h25.242l-35.04 53.778c-2.004 3.074-2.162 6.998-.414 10.224z" />
      <path d="m192.27 186.429h35.637c5.523 0 10-4.478 10-10s-4.477-10-10-10h-35.637c-5.523 0-10 4.478-10 10s4.477 10 10 10z" />
      <path d="m136.35 390.122c2.069 5.043 8.035 7.491 13.06 5.41 5.034-2.084 7.494-8.027 5.41-13.061-2.085-5.036-8.031-7.487-13.06-5.41-5.028 2.077-7.502 8.038-5.41 13.061z" />
    </g>
  </g>
</svg>
