<svg width="18" height="20" viewBox="0 0 18 20" fill="none" xmlns="http://www.w3.org/2000/svg">
  <path d="M2 12H4V18H2V12Z" fill="#282828" />
  <path d="M6 12H8V18H6V12Z" fill="#282828" />
  <path d="M10 12H12V18H10V12Z" fill="#282828" />
  <path d="M14 12H16V18H14V12Z" fill="#282828" />
  <path d="M0 18H18V20H0V18Z" fill="#282828" />
  <path d="M0 10H18V12H0V10Z" fill="#282828" />
  <path fill-rule="evenodd" clip-rule="evenodd" d="M9 5C6.23858 5 4 7.23858 4 10H2C2 6.13401 5.13401 3 9 3C12.866 3 16 6.13401 16 10H14C14 7.23858 11.7614 5 9 5Z" fill="#282828" />
  <path d="M8 0H10V5H8V0Z" fill="#282828" />
  <path d="M10 0H12V2H10V0Z" fill="#282828" />
</svg>
