<?xml version="1.0" encoding="iso-8859-1"?>
<!-- Generator: Adobe Illustrator 17.1.0, SVG Export Plug-In . SVG Version: 6.00 Build 0)  -->
<!DOCTYPE svg PUBLIC "-//W3C//DTD SVG 1.1//EN" "http://www.w3.org/Graphics/SVG/1.1/DTD/svg11.dtd">
<svg version="1.1" id="Capa_1" xmlns="http://www.w3.org/2000/svg" xmlns:xlink="http://www.w3.org/1999/xlink" x="0px" y="0px"
	 viewBox="0 0 422.701 422.701" style="enable-background:new 0 0 422.701 422.701;" xml:space="preserve">
<path d="M231.24,246.359v60.14h37.734v-60.14c0-4.971,4.029-9,9-9s9,4.029,9,9v69.142c0,4.971-4.029,9-9,9
	c-0.013,0-0.026-0.002-0.039-0.002h-55.657c-0.013,0-0.026,0.002-0.039,0.002c-4.971,0-9-4.029-9-9v-69.142c0-4.971,4.029-9,9-9
	S231.24,241.389,231.24,246.359z M295.334,404.698h-17.505v-60.323c0-4.971-4.029-9-9-9s-9,4.029-9,9v69.326c0,4.971,4.029,9,9,9
	c0.02,0,0.038-0.003,0.058-0.003h26.447c4.971,0,9-4.029,9-9S300.305,404.698,295.334,404.698z M231.386,335.375
	c-4.971,0-9,4.029-9,9v60.323h-17.505c-4.971,0-9,4.029-9,9s4.029,9,9,9h26.447c0.02,0,0.039,0.003,0.058,0.003c4.971,0,9-4.029,9-9
	v-69.326C240.386,339.404,236.357,335.375,231.386,335.375z M212.578,133.634c0-20.693,16.836-37.528,37.529-37.528
	s37.529,16.835,37.529,37.528s-16.836,37.529-37.529,37.529S212.578,154.327,212.578,133.634z M230.578,133.634
	c0,10.769,8.761,19.529,19.529,19.529s19.529-8.761,19.529-19.529c0-10.768-8.761-19.528-19.529-19.528
	S230.578,122.866,230.578,133.634z M158.243,122.584c-8.332,3.804-17.499,5.802-26.702,5.802c-17.145,0-33.265-6.677-45.389-18.8
	c-25.026-25.029-25.026-65.754-0.001-90.782C98.276,6.679,114.398,0,131.544,0c17.147,0,33.268,6.678,45.393,18.803
	c19.131,19.127,24.175,47.738,12.999,72.096l4.461,25.744c0.499,2.884-0.435,5.83-2.504,7.9s-5.013,3.007-7.901,2.504
	L158.243,122.584z M158.459,104.353l16.021,2.777l-2.776-16.022c-0.335-1.937-0.027-3.931,0.877-5.676
	c9.294-17.941,5.93-39.603-8.371-53.9C155.484,22.806,143.883,18,131.544,18s-23.939,4.806-32.664,13.53
	c-18.009,18.011-18.009,47.317,0,65.328c8.725,8.723,20.324,13.527,32.661,13.527c7.384,0,14.729-1.783,21.241-5.156
	C154.529,104.325,156.522,104.02,158.459,104.353z M131.156,27.526c-9.235,0-17.603,5.462-21.316,13.914
	c-1.999,4.551,0.069,9.86,4.62,11.859c4.552,2.001,9.861-0.068,11.859-4.619c0.843-1.916,2.741-3.154,4.837-3.154
	c2.913,0,5.283,2.37,5.283,5.283c0,2.914-2.37,5.284-5.283,5.284c-4.971,0-9,4.029-9,9v3.619c0,4.971,4.029,9,9,9
	c3.559,0,6.627-2.071,8.087-5.07c8.864-3.293,15.196-11.837,15.196-21.833C154.44,37.971,143.995,27.526,131.156,27.526z
	 M131.156,82.84c-4.971,0-9,4.05-9,9.021s4.029,9,9,9c4.971,0,9-4.029,9-9v-0.04C140.156,86.85,136.127,82.84,131.156,82.84z
	 M352.933,284.188l-21.815-23.644l-13.21-28.694c-1.014-2.202-2.003-4.458-2.959-6.639c-7.888-17.992-16.812-38.315-47.017-39.575
	c-0.345-0.04-0.695-0.066-1.051-0.066h-1.264c-0.023,0-0.045-0.002-0.068-0.002c-0.025,0-0.05,0-0.075,0
	c-0.013,0-0.026,0.002-0.039,0.002h-30.543c-0.221,0-0.439,0.018-0.656,0.033c-0.231-0.018-0.463-0.035-0.698-0.035
	c-0.025,0-0.051,0-0.075,0c-32.133,0.263-41.305,21.184-49.396,39.642c-0.957,2.182-1.946,4.438-2.96,6.642l-13.21,28.693
	l-21.815,23.644c-3.371,3.653-3.142,9.348,0.511,12.718c1.73,1.597,3.919,2.386,6.102,2.386c2.425,0,4.843-0.975,6.616-2.896
	l22.781-24.69c0.64-0.693,1.167-1.483,1.562-2.34l13.804-29.985c1.084-2.354,2.106-4.687,3.096-6.942
	c8.498-19.385,13.452-28.71,33.058-28.869c0.194-0.001,0.384-0.02,0.575-0.034c0.234,0.018,0.469,0.036,0.708,0.036h30.595
	c19.535,0.186,24.49,9.512,32.977,28.868c0.989,2.256,2.012,4.589,3.095,6.94l13.805,29.986c0.394,0.856,0.921,1.646,1.561,2.34
	l22.781,24.69c1.773,1.923,4.191,2.896,6.616,2.896c2.183,0,4.371-0.789,6.102-2.386
	C356.074,293.535,356.304,287.841,352.933,284.188z"/>
<g>
</g>
<g>
</g>
<g>
</g>
<g>
</g>
<g>
</g>
<g>
</g>
<g>
</g>
<g>
</g>
<g>
</g>
<g>
</g>
<g>
</g>
<g>
</g>
<g>
</g>
<g>
</g>
<g>
</g>
</svg>
