<svg width="66" height="66" viewBox="0 0 66 66" fill="none" xmlns="http://www.w3.org/2000/svg">
  <path d="M0.5 20C0.5 15.2718 0.501062 11.776 0.861658 9.09391C1.22032 6.42621 1.9264 4.63857 3.28249 3.28249C4.63857 1.9264 6.42621 1.22032 9.09391 0.861658C11.776 0.501062 15.2718 0.5 20 0.5H46C50.7282 0.5 54.224 0.501062 56.9061 0.861658C59.5738 1.22032 61.3614 1.9264 62.7175 3.28249C64.0736 4.63857 64.7797 6.42621 65.1383 9.09391C65.4989 11.776 65.5 15.2718 65.5 20V46C65.5 50.7282 65.4989 54.224 65.1383 56.9061C64.7797 59.5738 64.0736 61.3614 62.7175 62.7175C61.3614 64.0736 59.5738 64.7797 56.9061 65.1383C54.224 65.4989 50.7282 65.5 46 65.5H20C15.2718 65.5 11.776 65.4989 9.09391 65.1383C6.42621 64.7797 4.63857 64.0736 3.28249 62.7175C1.9264 61.3614 1.22032 59.5738 0.861658 56.9061C0.501062 54.224 0.5 50.7282 0.5 46V20Z" stroke="#282828" stroke-opacity="0.5" />
  <path d="M4.5 23C4.5 18.2435 4.50319 14.8271 4.85274 12.2272C5.19649 9.67035 5.85028 8.1289 6.98959 6.98959C8.1289 5.85028 9.67035 5.19649 12.2272 4.85274C14.8271 4.50319 18.2436 4.5 23 4.5H43C47.7565 4.5 51.1729 4.50319 53.7728 4.85274C56.3297 5.19649 57.8711 5.85028 59.0104 6.98959C60.1497 8.1289 60.8035 9.67035 61.1473 12.2272C61.4968 14.8271 61.5 18.2436 61.5 23V43C61.5 47.7565 61.4968 51.1729 61.1473 53.7728C60.8035 56.3297 60.1497 57.8711 59.0104 59.0104C57.8711 60.1497 56.3297 60.8035 53.7728 61.1473C51.1729 61.4968 47.7564 61.5 43 61.5H23C18.2435 61.5 14.8271 61.4968 12.2272 61.1473C9.67035 60.8035 8.1289 60.1497 6.98959 59.0104C5.85028 57.8711 5.19649 56.3297 4.85274 53.7728C4.50319 51.1729 4.5 47.7565 4.5 43V23Z" stroke="#282828" stroke-width="3" />
  <path d="M37.296 34.6C37.792 33.576 38.256 32.808 38.688 32.296H24.696V31.288H38.688C38.256 30.776 37.792 30.008 37.296 28.984H38.136C39.144 30.152 40.2 31.016 41.304 31.576V32.008C40.2 32.552 39.144 33.416 38.136 34.6H37.296Z" fill="#282828" />
</svg>
