<svg width="27" height="27" viewBox="0 0 27 27" fill="none" xmlns="http://www.w3.org/2000/svg">
<path fill-rule="evenodd" clip-rule="evenodd" d="M10.7222 2C8.40895 2 6.19041 2.91895 4.55468 4.55468C2.91895 6.19041 2 8.40895 2 10.7222C2 11.8676 2.22561 13.0018 2.66394 14.0601C3.10227 15.1183 3.74475 16.0798 4.55468 16.8898C5.36461 17.6997 6.32614 18.3422 7.38437 18.7805C8.4426 19.2188 9.5768 19.4444 10.7222 19.4444C11.8676 19.4444 13.0018 19.2188 14.0601 18.7805C15.1183 18.3422 16.0798 17.6997 16.8898 16.8898C17.6997 16.0798 18.3422 15.1183 18.7805 14.0601C19.2188 13.0018 19.4444 11.8676 19.4444 10.7222C19.4444 8.40895 18.5255 6.19041 16.8898 4.55468C15.254 2.91895 13.0355 2 10.7222 2ZM3.14047 3.14047C5.15127 1.12966 7.87851 0 10.7222 0C13.5659 0 16.2932 1.12966 18.304 3.14047C20.3148 5.15127 21.4444 7.87851 21.4444 10.7222C21.4444 12.1303 21.1671 13.5246 20.6283 14.8254C20.2174 15.8173 19.6607 16.7401 18.978 17.5638L26.7071 25.2929C27.0976 25.6834 27.0976 26.3166 26.7071 26.7071C26.3166 27.0976 25.6834 27.0976 25.2929 26.7071L17.5638 18.978C16.7401 19.6607 15.8173 20.2174 14.8254 20.6283C13.5246 21.1671 12.1303 21.4444 10.7222 21.4444C9.31416 21.4444 7.91989 21.1671 6.61901 20.6283C5.31813 20.0894 4.13612 19.2996 3.14047 18.304C2.14482 17.3083 1.35502 16.1263 0.816181 14.8254C0.277339 13.5246 0 12.1303 0 10.7222C5.96046e-08 7.87851 1.12966 5.15127 3.14047 3.14047Z" fill="white"/>
</svg>
