<svg width="18" height="16" viewBox="0 0 18 16" fill="none" xmlns="http://www.w3.org/2000/svg">
<path d="M18 4.68107V6.14764C17.9859 6.18007 17.9751 6.21384 17.9676 6.24846C17.8954 6.83355 17.7313 7.403 17.4816 7.93501C16.9314 9.0939 16.1939 10.1505 15.3001 11.0606C13.4768 12.9928 11.3781 14.5602 9.14442 15.9535C9.10599 15.9836 9.05884 16 9.01032 16C8.9618 16 8.91465 15.9836 8.87623 15.9535C7.08087 14.8614 5.39313 13.5955 3.83647 12.1734C2.71956 11.1714 1.74809 10.0128 0.951201 8.73246C0.512828 8.02928 0.217631 7.24357 0.0831318 6.42197C-0.051367 5.60037 -0.0224257 4.75961 0.168238 3.94962C0.985399 0.248377 5.51039 -1.26402 8.32905 1.21631C8.57024 1.42713 8.78263 1.67278 9.02382 1.91476C9.03865 1.8894 9.05487 1.86492 9.07242 1.84143C10.3324 0.406033 11.8893 -0.235589 13.7522 0.0833885C15.7951 0.431698 17.1342 1.67461 17.7858 3.67464C17.8753 4.00585 17.9468 4.34184 18 4.68107Z" fill="#F05A5A"/>
</svg>
