<svg width="66" height="66" viewBox="0 0 66 66" fill="none" xmlns="http://www.w3.org/2000/svg">
  <g opacity="0.3">
    <path d="M65.5 46.0002C65.5 50.7284 65.4989 54.2243 65.1383 56.9063C64.7797 59.574 64.0736 61.3617 62.7175 62.7178C61.3614 64.0738 59.5738 64.7799 56.9061 65.1386C54.224 65.4992 50.7282 65.5002 46 65.5002L20 65.5002C15.2718 65.5002 11.776 65.4992 9.09391 65.1386C6.42621 64.7799 4.63857 64.0738 3.28249 62.7178C1.92641 61.3617 1.22032 59.574 0.861657 56.9063C0.501062 54.2243 0.500001 50.7284 0.500002 46.0002L0.500004 20.0002C0.500004 15.2721 0.501065 11.7762 0.861661 9.09414C1.22033 6.42645 1.92641 4.63881 3.28249 3.28272C4.63857 1.92665 6.42622 1.22056 9.09391 0.861895C11.776 0.5013 15.2718 0.50024 20 0.50024L46 0.500242C50.7282 0.500243 54.224 0.501304 56.9061 0.8619C59.5738 1.22057 61.3614 1.92665 62.7175 3.28273C64.0736 4.63881 64.7797 6.42646 65.1383 9.09415C65.4989 11.7762 65.5 15.2721 65.5 20.0002L65.5 46.0002Z" stroke="#282828" stroke-opacity="0.5" />
    <path d="M61.5 43.0002C61.5 47.7567 61.4968 51.1731 61.1473 53.7731C60.8035 56.3299 60.1497 57.8713 59.0104 59.0107C57.8711 60.15 56.3297 60.8037 53.7728 61.1475C51.1729 61.4971 47.7564 61.5002 43 61.5002L23 61.5002C18.2435 61.5002 14.8271 61.4971 12.2272 61.1475C9.67035 60.8037 8.12891 60.15 6.9896 59.0106C5.85029 57.8713 5.1965 56.3299 4.85275 53.7731C4.50319 51.1731 4.50001 47.7567 4.50001 43.0002L4.50001 23.0002C4.50001 18.2438 4.50319 14.8273 4.85275 12.2274C5.1965 9.67058 5.85029 8.12915 6.9896 6.98983C8.12892 5.85052 9.67035 5.19673 12.2272 4.85298C14.8271 4.50343 18.2436 4.50024 23 4.50024L43 4.50024C47.7565 4.50024 51.1729 4.50343 53.7729 4.85298C56.3297 5.19674 57.8711 5.85052 59.0104 6.98984C60.1497 8.12915 60.8035 9.67059 61.1473 12.2274C61.4968 14.8274 61.5 18.2438 61.5 23.0002L61.5 43.0002Z" stroke="#282828" stroke-width="3" />
    <path d="M28.704 31.4002C28.208 32.4242 27.744 33.1922 27.312 33.7042L41.304 33.7042L41.304 34.7122L27.312 34.7122C27.744 35.2242 28.208 35.9922 28.704 37.0162L27.864 37.0162C26.856 35.8482 25.8 34.9842 24.696 34.4242L24.696 33.9922C25.8 33.4482 26.856 32.5842 27.864 31.4002L28.704 31.4002Z" fill="#282828" />
  </g>
</svg>
