<?xml version="1.0" standalone="no"?>
<!DOCTYPE svg PUBLIC "-//W3C//DTD SVG 20010904//EN"
 "http://www.w3.org/TR/2001/REC-SVG-20010904/DTD/svg10.dtd">
<svg version="1.0" xmlns="http://www.w3.org/2000/svg"
 width="176.000000pt" height="190.000000pt" viewBox="0 0 176.000000 190.000000"
 preserveAspectRatio="xMidYMid meet">
<metadata>
Created by potrace 1.16, written by Peter Selinger 2001-2019
</metadata>
<g transform="translate(0.000000,190.000000) scale(0.100000,-0.100000)"
fill="#000000" stroke="none">
<path d="M745 1760 c-344 -54 -618 -307 -702 -647 -22 -92 -22 -294 0 -387
115 -465 580 -745 1042 -626 301 77 536 318 612 627 25 101 22 304 -6 407 -79
294 -318 533 -606 607 -92 23 -253 32 -340 19z m15 -688 c0 -288 2 -330 17
-351 l16 -24 -54 5 c-114 9 -246 100 -289 199 -45 106 -36 252 21 341 51 79
179 157 262 158 l27 0 0 -328z m306 292 c67 -32 141 -101 169 -159 19 -37 20
-68 25 -411 5 -348 6 -373 24 -393 l19 -21 -130 0 c-119 0 -133 2 -164 23 -18
12 -44 38 -56 56 l-23 34 0 432 c0 372 -2 434 -15 445 -29 24 -16 33 39 27 29
-3 80 -18 112 -33z"/>
</g>
</svg>
