<svg width="21" height="20" viewBox="0 0 21 20" fill="none" xmlns="http://www.w3.org/2000/svg">
<path d="M19.004 5.975V4C19.004 1.794 17.21 0 15.004 0H5.004C2.798 0 1.004 1.794 1.004 4V5.998L0.928 6.002C0.675801 6.02021 0.439861 6.13328 0.267677 6.31845C0.095493 6.50362 -0.000150362 6.74714 1.77437e-07 7V9C1.77437e-07 9.26522 0.105357 9.51957 0.292893 9.70711C0.48043 9.89464 0.734784 10 1 10H1.004V16C1.004 16.735 1.407 17.372 2 17.72V19C2 19.2652 2.10536 19.5196 2.29289 19.7071C2.48043 19.8946 2.73478 20 3 20H4C4.26522 20 4.51957 19.8946 4.70711 19.7071C4.89464 19.5196 5 19.2652 5 19V18H15V19C15 19.2652 15.1054 19.5196 15.2929 19.7071C15.4804 19.8946 15.7348 20 16 20H17C17.2652 20 17.5196 19.8946 17.7071 19.7071C17.8946 19.5196 18 19.2652 18 19V17.724C18.304 17.5501 18.5569 17.2992 18.7331 16.9966C18.9094 16.6939 19.0028 16.3502 19.004 16V10C19.2692 10 19.5236 9.89464 19.7111 9.70711C19.8986 9.51957 20.004 9.26522 20.004 9V7.062C20.0155 6.90681 19.9909 6.75106 19.932 6.607C19.729 6.12 19.297 6.003 19.004 5.975ZM17.006 16H3.004V11H17.005L17.006 16ZM9.004 5V9H3.004V5H9.004ZM17.004 5V9H11.004V5H17.004ZM5.004 2H15.004C15.74 2 16.379 2.405 16.726 3H3.282C3.629 2.405 4.268 2 5.004 2Z" fill="#282828"/>
<path d="M5.5 15C6.32843 15 7 14.3284 7 13.5C7 12.6716 6.32843 12 5.5 12C4.67157 12 4 12.6716 4 13.5C4 14.3284 4.67157 15 5.5 15Z" fill="#282828"/>
<path d="M14.5 15C15.3284 15 16 14.3284 16 13.5C16 12.6716 15.3284 12 14.5 12C13.6716 12 13 12.6716 13 13.5C13 14.3284 13.6716 15 14.5 15Z" fill="#282828"/>
</svg>
