<svg width="22" height="22" viewBox="0 0 22 22" fill="none" xmlns="http://www.w3.org/2000/svg">
<path fill-rule="evenodd" clip-rule="evenodd" d="M9.5 2C7.69904 2 6.21472 3.36098 6.02142 5.10994L5.92273 6.00308L5 6H4.99847C3.34229 6.00082 2 7.34364 2 9C2 10.6569 3.34314 12 5 12C5.46735 12 5.90698 11.8939 6.29865 11.7054L7.11328 11.3134L7.58521 12.0844C8.28973 13.2355 9.55603 14 11 14C12.3182 14 13.4875 13.3634 14.2178 12.3765L14.9092 11.4424L15.7297 12.2653C16.1835 12.7203 16.8081 13 17.5 13C18.8807 13 20 11.8807 20 10.5C20 9.43248 19.3304 8.51884 18.3849 8.16087L17.3924 7.7851C17.6463 7.21865 18 6.63798 18 6C18 4.89542 17.1046 4 16 4C14.7565 4 14.176 4.89196 13.5156 5.76562C12.726 3.88479 11.946 2 9.5 2ZM4.18921 4.06541C4.8205 1.72318 6.95844 0 9.5 0C11.4235 0 13.1149 0.987038 14.0976 2.48073C14.6633 2.17438 15.3115 2 16 2C18.2092 2 20 3.79086 20 6C20 6.24398 19.978 6.48331 19.9359 6.71597C21.1769 7.51643 22 8.91125 22 10.5C22 12.9853 19.9853 15 17.5 15C16.6378 15 15.8314 14.7569 15.1469 14.3362C14.8015 14.6665 14.4166 14.9561 14 15.1971V17.8377L14.7208 20H17V22H15.3874H6.61255H5V20H7.27924L8 17.8377V15.1971C7.37506 14.8356 6.82153 14.3647 6.36566 13.811C5.93091 13.9342 5.4726 14 5 14C2.23853 14 0 11.7614 0 9C0 6.51465 1.81335 4.45282 4.18921 4.06541ZM10 15.917V17.8377C10 18.0527 9.96533 18.2662 9.89734 18.4702L9.38739 20H12.6125L12.1026 18.4702C12.0346 18.2662 12 18.0527 12 17.8377V15.917C11.6748 15.9716 11.3407 16 11 16C10.6592 16 10.3252 15.9716 10 15.917Z" fill="#282828"/>
</svg>
