<?xml version="1.0" encoding="iso-8859-1"?>
<!-- Generator: Adobe Illustrator 19.0.0, SVG Export Plug-In . SVG Version: 6.00 Build 0)  -->
<svg version="1.1" id="Capa_1" xmlns="http://www.w3.org/2000/svg" xmlns:xlink="http://www.w3.org/1999/xlink" x="0px" y="0px" viewBox="0 0 488.1 488.1" style="enable-background:new 0 0 488.1 488.1;" xml:space="preserve">
  <g>
    <g>
      <circle cx="405.362" cy="28.9" r="28.9" />
      <path d="M156.362,426.3c-15.7-12.3-48.4-44.4-57-48.1c-13.8-7.2-29-13-45.9-10.4c-7.5,1.1-17.5,6.9-22,12.6
            c-9.1,11.4-8.5,20.6,3.2,28.8c26.1,19.2,48.9,42.7,69.4,68.2c2.6,3.3,5.8,6.9,9.1,10.7h348.5c4.5-52.9-4.4-107.3-8.3-128.8
            c-0.6-6.5-4.4-11.3-9.6-14.8c-95.2-57.7-197.3-52.2-197.3-52.2l-9.1-24.5c-6.9-20.2-14.9-39.8-21.8-60
            c-8-22.3-15.5-43.6-23.8-65.1c-0.2-0.6-0.6-1.1-0.8-1.7l83.7-85.5c3.3,1.3,6.8,2.1,10.5,2.1s7.3-0.8,10.5-2.1l83.1,84.9
            c-1.4,3.4-2.2,7.2-2.2,11.1c0,12,7.3,22.2,17.6,26.6v69.7c-10.4,4.4-17.6,14.6-17.6,26.6c0,15.9,12.9,28.9,28.9,28.9
            c15.9,0,28.9-12.9,28.9-28.9c0-12-7.3-22.2-17.6-26.6v-69.7c10.4-4.4,17.6-14.6,17.6-26.6c0-15.9-12.9-28.9-28.9-28.9
            c-3.7,0-7.3,0.8-10.5,2.1l-83.1-84.9c1.4-3.4,2.2-7.2,2.2-11.1c-0.1-15.7-13.1-28.6-29-28.6s-28.9,12.9-28.9,28.9
            c0,4,0.8,7.7,2.2,11.1l-83.4,85.2c-6-2.5-12.7-3.2-19.3-1.3c-15.1,5-23,18.5-19.4,35c15.2,74.8,30.7,148.9,44.3,223.2
            c0.9,8.4,1.8,16.7-0.1,25.1C176.862,424,169.962,437,156.362,426.3z M418.462,274.6c0,7.2-5.9,13.1-13.1,13.1s-13.1-5.9-13.1-13.1
            s5.9-13.1,13.1-13.1C412.562,261.6,418.462,267.4,418.462,274.6z M405.362,138.7c7.2,0,13.1,5.9,13.1,13.1
            c0,7.2-5.9,13.1-13.1,13.1s-13.1-5.8-13.1-13.1C392.262,144.5,398.162,138.7,405.362,138.7z M285.062,15.8
            c7.2,0,13.1,5.8,13.1,13.1c0,7.2-5.8,13.1-13.1,13.1c-7.2,0-13.1-5.8-13.1-13.1C271.962,21.7,277.862,15.8,285.062,15.8z" />
      <circle cx="285.062" cy="151.8" r="28.9" />
      <circle cx="164.762" cy="28.9" r="28.9" />
    </g>
  </g>
  <g></g>
  <g></g>
  <g></g>
  <g></g>
  <g></g>
  <g></g>
  <g></g>
  <g></g>
  <g></g>
  <g></g>
  <g></g>
  <g></g>
  <g></g>
  <g></g>
  <g></g>
</svg>
